<?xml version="1.0" encoding="UTF-8"?>
<svg id="Layer_2" data-name="Layer 2" xmlns="http://www.w3.org/2000/svg" viewBox="0 0 489.22 373.28">
  <defs>
    <style>
      .cls-1 {
        fill: #9d4397;
      }

      .cls-1, .cls-2, .cls-3 {
        stroke-width: 0px;
      }

      .cls-2 {
        fill: #ca326f;
      }

      .cls-3 {
        fill: #f47615;
      }
    </style>
  </defs>
  <g id="Layer_1-2" data-name="Layer 1">
    <g>
      <path class="cls-3" d="M65.45,11.57c-20.78-2.89-40.89,6.44-51.82,19.68-17.63,21.36-18.03,50.19-1.95,72.13,6.85,9.35,17.47,17.34,30.63,20.97,24.43,6.74,49.67-5.31,61.71-21.5,21.61-29.03,12.39-84.2-38.58-91.29Z"/>
      <path class="cls-1" d="M488.33,70.62c-.75-4.49-1.88-8.71-3.02-12.19-8.03-24.66-31.22-47.89-63.59-55.75-31.65-7.68-67.34,1.81-89.25,20.31-18.53,15.64-25.67,35.3-27.69,55.9-.62,6.36-.1,12.98,3.59,18.69,5.67,8.79,19.52,14.06,30.7,7.63,4.63-2.66,7.76-6.62,9.73-10.79,3.97-8.42,4.94-17.55,8.64-26.08,4.89-11.29,16.42-22.18,32.16-24.85,17.55-2.98,34.77,5.86,43.01,17.31,4.32,5.99,6.7,12.7,8.13,19.46,1.17,5.54,1.75,11.25,4.55,16.44,4.9,9.07,19.17,14.73,30.8,8.89,13.37-6.71,14.39-22,12.23-34.97Z"/>
      <path class="cls-2" d="M428.87,162.76c-4.37-1.74-9.16-2.89-14.35-3.27-32.02-2.33-47.8,21.18-54.93,41.26-7.22,20.34-10.28,40.76-27.18,58.15-20.82,21.43-53.69,35.32-88.75,35.81-40.21.55-78.01-16.06-97.94-42.77-14.64-19.61-18.49-41.79-27.77-62.87-5.41-12.3-15.77-24.94-33.06-28.51-17.57-3.63-37.42,1.32-48.7,12.3-19.02,18.51-14.69,45.22-8.66,66.59,15.82,56.05,72.19,104.6,142.25,124.37,74.4,21,158.51,5.97,217-34.22,1.45-.99,2.88-2,4.29-3.03,24.46-17.7,43.72-39.62,54.95-63.97,5.14-11.16,9.69-22.53,12.02-34.25,4.49-22.65.7-53.67-29.18-65.58Z"/>
    </g>
  </g>
</svg>