<?xml version="1.0" encoding="UTF-8"?>
<svg id="Layer_2" data-name="Layer 2" xmlns="http://www.w3.org/2000/svg" viewBox="0 0 37.25 37.25">
  <defs>
    <style>
      .cls-1 {
        fill: #c1272d;
      }

      .cls-1, .cls-2 {
        stroke-width: 0px;
      }

      .cls-2 {
        fill: #fc3;
      }
    </style>
  </defs>
  <g id="Layer_1-2" data-name="Layer 1">
    <g>
      <path class="cls-1" d="M37.25,14.86c0-5.66-4.59-10.25-10.25-10.25-1.53,0-2.98.35-4.29.95-1.71-3.3-5.14-5.55-9.11-5.55C7.94,0,3.35,4.59,3.35,10.25c0,1.76.44,3.41,1.22,4.86-2.76,1.84-4.57,4.97-4.57,8.53,0,5.66,4.59,10.25,10.25,10.25,1.89,0,3.65-.52,5.17-1.41,1.82,2.86,5.01,4.75,8.64,4.75,5.66,0,10.25-4.59,10.25-10.25,0-1.48-.32-2.89-.89-4.16,2.33-1.88,3.82-4.75,3.82-7.98Z"/>
      <path class="cls-2" d="M24.58,18.71s.04.09.04.14c.01.09-.02.19-.06.27-.44.93-1.52,1.3-2.45,1.46-.72.12-1.35.34-1.56,1.1-.17.64-.02,1.38-.57,1.88-1.09.97-2.24-.91-2.67-1.68-.57-1.02-1.28-1.53-2.37-1.89-1.08-.36-2.29-.99-2.32-2.3-.01-.68.35-1.23,1.01-1.43.83-.25,1.61.16,2.37.46.46.18,1.1.32,1.52-.04.58-.5.2-1.35.3-1.99.16-.99,1.15-1.41,2.07-1.22.54.11,1.15.45,1.35.99.24.62.19,1.33.55,1.91.63,1.03,1.97,1.25,2.7,2.18.04.05.08.1.1.16Z"/>
    </g>
  </g>
</svg>