<?xml version="1.0" encoding="UTF-8"?>
<svg id="Layer_2" data-name="Layer 2" xmlns="http://www.w3.org/2000/svg" viewBox="0 0 135.12 110.73">
  <defs>
    <style>
      .cls-1 {
        fill: #c1272d;
      }

      .cls-1, .cls-2, .cls-3, .cls-4, .cls-5, .cls-6 {
        stroke-width: 0px;
      }

      .cls-2 {
        fill: #fc3;
      }

      .cls-3 {
        fill: #0476d9;
      }

      .cls-4 {
        fill: #4bb2f2;
      }

      .cls-5 {
        fill: #4a4a4a;
      }

      .cls-6 {
        fill: #2a3d66;
      }
    </style>
  </defs>
  <g id="Layer_1-2" data-name="Layer 1">
    <g>
      <path class="cls-5" d="M-5.8,50.97H58.22c1.5,0,2.72,1.22,2.72,2.72v1.63c0,.79-.64,1.43-1.43,1.43H-7.09c-.79,0-1.43-.64-1.43-1.43v-1.63c0-1.5,1.22-2.72,2.72-2.72Z" transform="translate(-27.65 80.07) rotate(-90)"/>
      <path class="cls-5" d="M78.45,50.97h64.02c1.5,0,2.72,1.22,2.72,2.72v1.63c0,.79-.64,1.43-1.43,1.43h-66.59c-.79,0-1.43-.64-1.43-1.43v-1.63c0-1.5,1.22-2.72,2.72-2.72Z" transform="translate(56.6 164.32) rotate(-90)"/>
      <g>
        <path class="cls-1" d="M86.75,48.57c0-5.66-4.59-10.25-10.25-10.25-1.53,0-2.98.35-4.29.95-1.71-3.3-5.14-5.55-9.11-5.55-5.66,0-10.25,4.59-10.25,10.25,0,1.76.44,3.41,1.22,4.86-2.76,1.84-4.57,4.97-4.57,8.53,0,5.66,4.59,10.25,10.25,10.25,1.89,0,3.65-.52,5.17-1.41,1.82,2.86,5.01,4.75,8.64,4.75,5.66,0,10.25-4.59,10.25-10.25,0-1.48-.32-2.89-.89-4.16,2.33-1.88,3.82-4.75,3.82-7.98Z"/>
        <path class="cls-2" d="M74.08,52.42s.04.09.04.14c.01.09-.02.19-.06.27-.44.93-1.52,1.3-2.45,1.46-.72.12-1.35.34-1.56,1.1-.17.64-.02,1.38-.57,1.88-1.09.97-2.24-.91-2.67-1.68-.57-1.02-1.28-1.53-2.37-1.89-1.08-.36-2.29-.99-2.32-2.3-.01-.68.35-1.23,1.01-1.43.83-.25,1.61.16,2.37.46.46.18,1.1.32,1.52-.04.58-.5.2-1.35.3-1.99.16-.99,1.15-1.41,2.07-1.22.54.11,1.15.45,1.35.99.24.62.19,1.33.55,1.91.63,1.03,1.97,1.25,2.7,2.18.04.05.08.1.1.16Z"/>
      </g>
      <path class="cls-5" d="M57.86,18.08c-14.14,11.15-31.99,24.71-53.35,28.73-.31.06-.64-.05-.92-.31l-2.77-2.57c-1.34-1.24-.97-4.75.54-5.08,16.31-3.66,29.42-8.37,39.32-14.14,10.88-6.33,18.03-13.67,18.15-22.01h0c0-1.5.7-2.71,1.56-2.71h12.63c.86,0,1.56,1.21,1.56,2.71h0c-.12,8.11,8.57,15.37,19.45,21.79,9.93,5.86,23.17,10.65,39.72,14.36,1.5.34,1.88,3.82.55,5.08l-3,2.82c-.28.26-.6.38-.92.32-20.55-3.83-37.92-17.52-52.32-28.96-6.42-5.1-13.78-5.11-20.21-.04Z"/>
      <path class="cls-6" d="M132.62,88.59H2.39c-1.22,0-2.2-.99-2.2-2.2v-.66c0-2.31,1.87-4.18,4.18-4.18h126.28c2.31,0,4.18,1.87,4.18,4.18v.66c0,1.22-.99,2.2-2.2,2.2Z"/>
      <path class="cls-3" d="M113.15,99.66H21.86c-1.02,0-1.85-.83-1.85-1.85v-1.69c0-1.94,1.57-3.51,3.51-3.51h87.97c1.94,0,3.51,1.57,3.51,3.51v1.69c0,1.02-.83,1.85-1.85,1.85Z"/>
      <path class="cls-4" d="M101.84,110.73H34c-.88,0-1.6-.72-1.6-1.6v-2.41c0-1.68,1.36-3.04,3.04-3.04h64.96c1.68,0,3.04,1.36,3.04,3.04v2.41c0,.88-.72,1.6-1.6,1.6Z"/>
    </g>
  </g>
</svg>