<svg width="30" height="30" viewBox="0 0 30 30" fill="none" xmlns="http://www.w3.org/2000/svg">
<circle cx="15" cy="15" r="15" fill="url(#paint0_linear_294_3)"/>
<path d="M15 10.3846C14.0872 10.3846 13.1948 10.6553 12.4358 11.1624C11.6768 11.6696 11.0853 12.3904 10.7359 13.2338C10.3866 14.0771 10.2952 15.0051 10.4733 15.9004C10.6514 16.7957 11.091 17.6181 11.7364 18.2636C12.3819 18.909 13.2043 19.3486 14.0996 19.5267C14.9949 19.7048 15.9229 19.6134 16.7662 19.2641C17.6096 18.9147 18.3304 18.3232 18.8376 17.5642C19.3447 16.8052 19.6154 15.9128 19.6154 15C19.6141 13.7763 19.1274 12.6031 18.2622 11.7378C17.3969 10.8726 16.2237 10.3859 15 10.3846ZM15 18.0769C14.3914 18.0769 13.7966 17.8965 13.2906 17.5584C12.7846 17.2203 12.3902 16.7397 12.1573 16.1775C11.9244 15.6153 11.8635 14.9966 11.9822 14.3997C12.1009 13.8029 12.394 13.2546 12.8243 12.8243C13.2546 12.394 13.8029 12.1009 14.3997 11.9822C14.9966 11.8635 15.6153 11.9244 16.1775 12.1573C16.7397 12.3902 17.2203 12.7846 17.5584 13.2906C17.8965 13.7966 18.0769 14.3914 18.0769 15C18.0769 15.8161 17.7527 16.5987 17.1757 17.1757C16.5987 17.7527 15.8161 18.0769 15 18.0769ZM19.6154 5H10.3846C8.957 5.00153 7.58828 5.56932 6.5788 6.5788C5.56932 7.58828 5.00153 8.957 5 10.3846V19.6154C5.00153 21.043 5.56932 22.4117 6.5788 23.4212C7.58828 24.4307 8.957 24.9985 10.3846 25H19.6154C21.043 24.9985 22.4117 24.4307 23.4212 23.4212C24.4307 22.4117 24.9985 21.043 25 19.6154V10.3846C24.9985 8.957 24.4307 7.58828 23.4212 6.5788C22.4117 5.56932 21.043 5.00153 19.6154 5ZM23.4615 19.6154C23.4615 20.6354 23.0563 21.6137 22.335 22.335C21.6137 23.0563 20.6354 23.4615 19.6154 23.4615H10.3846C9.36455 23.4615 8.38627 23.0563 7.66497 22.335C6.94368 21.6137 6.53846 20.6354 6.53846 19.6154V10.3846C6.53846 9.36455 6.94368 8.38627 7.66497 7.66497C8.38627 6.94368 9.36455 6.53846 10.3846 6.53846H19.6154C20.6354 6.53846 21.6137 6.94368 22.335 7.66497C23.0563 8.38627 23.4615 9.36455 23.4615 10.3846V19.6154ZM21.1538 10C21.1538 10.2282 21.0862 10.4513 20.9594 10.641C20.8326 10.8308 20.6524 10.9787 20.4416 11.066C20.2307 11.1533 19.9987 11.1762 19.7749 11.1317C19.5511 11.0872 19.3455 10.9773 19.1841 10.8159C19.0227 10.6545 18.9128 10.4489 18.8683 10.2251C18.8238 10.0013 18.8467 9.76928 18.934 9.55844C19.0213 9.3476 19.1692 9.1674 19.359 9.04061C19.5487 8.91383 19.7718 8.84615 20 8.84615C20.306 8.84615 20.5995 8.96772 20.8159 9.18411C21.0323 9.4005 21.1538 9.69398 21.1538 10Z" fill="#FFFFF0"/>
<defs>
<linearGradient id="paint0_linear_294_3" x1="15" y1="0" x2="15" y2="30" gradientUnits="userSpaceOnUse">
<stop stop-color="#833AB4"/>
<stop offset="0.5" stop-color="#FD1D1D"/>
<stop offset="1" stop-color="#FCB045"/>
</linearGradient>
</defs>
</svg>
