<?xml version="1.0" encoding="UTF-8"?>
<svg id="Layer_2" data-name="Layer 2" xmlns="http://www.w3.org/2000/svg" viewBox="0 0 194.28 71.15">
  <defs>
    <style>
      .cls-1 {
        fill: #c1272d;
      }

      .cls-1, .cls-2, .cls-3, .cls-4, .cls-5, .cls-6 {
        stroke-width: 0px;
      }

      .cls-2 {
        fill: #fc3;
      }

      .cls-3 {
        fill: #0476d9;
      }

      .cls-4 {
        fill: #4bb2f2;
      }

      .cls-5 {
        fill: #4a4a4a;
      }

      .cls-6 {
        fill: #2a3d66;
      }
    </style>
  </defs>
  <g id="Layer_1-2" data-name="Layer 1">
    <g>
      <g>
        <path class="cls-5" d="M-3.73,32.75h41.14c.96,0,1.75.78,1.75,1.75v1.05c0,.51-.41.92-.92.92H-4.55c-.51,0-.92-.41-.92-.92v-1.05c0-.96.78-1.75,1.75-1.75Z" transform="translate(-17.76 51.44) rotate(-90)"/>
        <path class="cls-5" d="M50.41,32.75h41.14c.96,0,1.75.78,1.75,1.75v1.05c0,.51-.41.92-.92.92h-42.79c-.51,0-.92-.41-.92-.92v-1.05c0-.96.78-1.75,1.75-1.75Z" transform="translate(36.37 105.58) rotate(-90)"/>
        <g>
          <path class="cls-1" d="M55.74,31.21c0-3.64-2.95-6.59-6.59-6.59-.98,0-1.92.22-2.75.61-1.1-2.12-3.3-3.57-5.85-3.57-3.64,0-6.59,2.95-6.59,6.59,0,1.13.29,2.19.79,3.12-1.77,1.18-2.94,3.2-2.94,5.48,0,3.64,2.95,6.59,6.59,6.59,1.21,0,2.34-.33,3.32-.9,1.17,1.83,3.22,3.06,5.55,3.06,3.64,0,6.59-2.95,6.59-6.59,0-.95-.21-1.86-.57-2.67,1.49-1.21,2.45-3.05,2.45-5.12Z"/>
          <path class="cls-2" d="M47.6,33.68s.02.06.03.09c0,.06-.01.12-.04.18-.28.6-.97.84-1.58.94-.47.08-.87.22-1,.71-.11.41-.01.89-.37,1.21-.7.63-1.44-.59-1.72-1.08-.37-.65-.82-.98-1.53-1.22-.69-.23-1.47-.64-1.49-1.48,0-.44.22-.79.65-.92.53-.16,1.04.1,1.52.3.29.12.71.2.97-.03.37-.32.13-.87.19-1.28.1-.64.74-.9,1.33-.79.35.07.74.29.87.64.15.4.12.86.35,1.23.4.66,1.27.8,1.73,1.4.03.03.05.07.07.1Z"/>
        </g>
        <path class="cls-5" d="M37.17,11.62c-9.08,7.16-20.56,15.87-34.28,18.46-.2.04-.41-.03-.59-.2l-1.78-1.65c-.86-.8-.62-3.05.35-3.27,10.48-2.35,18.9-5.38,25.27-9.08,6.99-4.07,11.58-8.78,11.66-14.14h0c0-.96.45-1.74,1-1.74h8.11c.55,0,1,.78,1,1.74h0c-.08,5.21,5.51,9.88,12.5,14,6.38,3.76,14.89,6.84,25.52,9.23.97.22,1.21,2.46.35,3.26l-1.93,1.81c-.18.17-.39.24-.59.2-13.2-2.46-24.36-11.26-33.62-18.61-4.12-3.27-8.86-3.28-12.99-.02Z"/>
        <path class="cls-6" d="M85.21,56.92H1.54c-.78,0-1.42-.63-1.42-1.42v-.43c0-1.48,1.2-2.69,2.69-2.69h81.14c1.48,0,2.69,1.2,2.69,2.69v.43c0,.78-.63,1.42-1.42,1.42Z"/>
        <path class="cls-3" d="M72.7,64.03H14.05c-.66,0-1.19-.53-1.19-1.19v-1.08c0-1.25,1.01-2.26,2.26-2.26h56.52c1.25,0,2.26,1.01,2.26,2.26v1.08c0,.66-.53,1.19-1.19,1.19Z"/>
        <path class="cls-4" d="M65.43,71.15H21.85c-.57,0-1.03-.46-1.03-1.03v-1.55c0-1.08.87-1.95,1.95-1.95h41.74c1.08,0,1.95.87,1.95,1.95v1.55c0,.57-.46,1.03-1.03,1.03Z"/>
      </g>
      <g>
        <path class="cls-1" d="M94.01,40.07h12.01s0-3.47,0-3.47h-2.22c-4.68,0-8.47-3.79-8.47-8.47h0s-.31,0-.31,0c-.56,0-1.01-.45-1.01-1.01h0s27.63,0,27.63,0h0c0,.71-.57,1.28-1.28,1.28h-17.84c0,3.82,3.09,6.91,6.91,6.91h11.04c.71,0,1.28.57,1.28,1.28h0s-9.34,0-9.34,0v3.47h11.04c.71,0,1.28.57,1.28,1.28h0s-32.01,0-32.01,0h0c0-.71.57-1.28,1.28-1.28ZM100.7,54.9c-1.96-.35-3.41-.93-4.36-1.75-.95-.82-1.42-1.96-1.42-3.42,0-1.57.58-2.78,1.74-3.61,1.16-.83,2.72-1.39,4.7-1.68,1.98-.29,4.45-.43,7.41-.43s5.46.15,7.41.43c1.96.29,3.51.85,4.65,1.68,1.15.83,1.72,2.04,1.72,3.61s-.49,2.67-1.46,3.49c-.97.82-2.46,1.39-4.46,1.72s-4.7.49-8.11.49-5.87-.17-7.83-.52ZM102.87,53.21c.95.59,2.23.88,3.85.88h4.06c1.62,0,2.89-.29,3.82-.87.93-.58,1.39-1.48,1.39-2.71v-1.6c0-1.13-.48-2.02-1.44-2.66-.96-.64-2.22-.95-3.77-.95h-4.06c-1.62,0-2.9.29-3.85.88-.95.59-1.42,1.5-1.42,2.73v1.6c0,1.2.47,2.1,1.42,2.69Z"/>
        <path class="cls-1" d="M133.97,27.82v5.49h2.92v-5.49h5.49v14.75h-7.25c-3.78,0-6.85-3.07-6.85-6.85v-6.9h-.31c-.56,0-1.01-.45-1.01-1.01h0s7.01,0,7.01,0ZM130.99,45.56h22.94c2.38,0,4.32,1.93,4.32,4.32v5.37h-7.01v-3.59c0-2.66-2.15-4.81-4.81-4.81h-16.71c0-.71.57-1.28,1.28-1.28ZM136.89,41.22v-6.46h-2.92v6.46h2.92ZM143.59,26.81h6.77v6.63h2.4v-5.62h-.28c-.56,0-1.01-.45-1.01-1.01h0s8.12,0,8.12,0h0c0,.56-.45,1.01-1.01,1.01h-.35v15.76h-1.17c-2.38,0-4.32-1.93-4.32-4.32v-4.22s-2.4,0-2.4,0v8.54h-1.17c-2.38,0-4.32-1.93-4.32-4.32v-11.44h-.28c-.56,0-1.01-.45-1.01-1.01h0Z"/>
        <path class="cls-1" d="M167.77,38.37c1.12-1.62,1.68-3.74,1.68-6.35v-2.99h-4.93c-.69,0-1.25-.56-1.25-1.25h0s18.5,0,18.5,0h0c0,.69-.56,1.25-1.25,1.25h-4.37v2.95c0,2.22.32,3.95.95,5.17s1.49,2.08,2.57,2.55c1.08.48,2.4.76,3.98.85h0c0,.72-.61,1.29-1.32,1.24-2.22-.15-4.1-.69-5.64-1.62-1.84-1.11-3.08-2.97-3.73-5.59-.39,1.81-1.17,3.28-2.33,4.41-1.16,1.13-2.48,1.94-3.98,2.43-1.05.34-2.11.56-3.17.65-.71.06-1.32-.52-1.32-1.24h0c2.62-.02,4.48-.84,5.61-2.47ZM179.59,43.2c3.96,0,7.22.43,9.79,1.3s3.85,2.49,3.85,4.88-1.27,3.99-3.82,4.83c-2.55.83-5.82,1.25-9.82,1.25s-7.51-.42-10.24-1.25c-2.73-.83-4.1-2.44-4.1-4.83,0-4.12,4.78-6.18,14.34-6.18ZM179.59,54.17c2.34,0,4.12-.36,5.35-1.08,1.23-.72,1.84-1.96,1.84-3.71s-.61-3.04-1.84-3.78c-1.23-.74-3.01-1.11-5.35-1.11-5.25,0-7.88,1.63-7.88,4.89s2.63,4.79,7.88,4.79ZM180.18,33.62h5.9v-5.73h-.83c-.59,0-1.08-.48-1.08-1.08h0s10.1,0,10.1,0h0c0,.59-.48,1.08-1.08,1.08h-.73v14.16h-2.07c-2.38,0-4.32-1.93-4.32-4.32v-2.69h-4.48c-.79,0-1.42-.64-1.42-1.42h0Z"/>
      </g>
    </g>
  </g>
</svg>