<svg width="26" height="16" viewBox="0 0 26 16" fill="none" xmlns="http://www.w3.org/2000/svg">
<path d="M16.0009 3.63657C14.9592 3.63657 14.1826 2.86001 14.1826 1.81828C14.1826 0.776558 14.9592 0 16.0009 0C17.0426 0 17.8192 0.776558 17.8192 1.81828C17.8192 2.86001 17.0426 3.63657 16.0009 3.63657Z" fill="#D72638"/>
<path d="M0 16.0005V9.51993C0 5.81343 2.12421 4.18164 4.89493 4.18164C6.51118 4.18164 7.87345 4.81105 8.72775 6.02323C9.58206 4.81105 10.9212 4.18164 12.5606 4.18164C15.3313 4.18164 17.4555 5.81343 17.4555 9.51993V16.0005H13.9921V9.51993C13.9921 7.98139 13.2533 7.44523 12.2142 7.44523C11.1983 7.44523 10.4595 7.98139 10.4595 9.51993V16.0005H6.99606V9.51993C6.99606 7.98139 6.25721 7.44523 5.24128 7.44523C4.20226 7.44523 3.4634 7.98139 3.4634 9.51993V16.0005H0Z" fill="#D72638"/>
<path d="M14.1826 16.0005V10.0328C14.1826 6.1631 16.4831 4.18164 19.9102 4.18164C23.3374 4.18164 25.6378 6.13979 25.6378 10.0328V16.0005H22.1167V10.0328C22.1167 8.2145 21.2247 7.44523 19.9102 7.44523C18.5957 7.44523 17.7037 8.2145 17.7037 10.0328V16.0005H14.1826Z" fill="#D72638"/>
</svg>
